<svg xmlns="http://www.w3.org/2000/svg" width="70mm" height="54.55mm" viewBox="0 0 198.425 154.629"><polygon points="3.69 113.872 3.69 120.234 13.635 120.234 13.635 123.541 3.69 123.541 3.69 132.58 0 132.58 0 110.533 14.698 110.533 14.667 113.872 3.69 113.872"/><path d="M37.48,123.355c0,5.724-3.608,9.226-9.539,9.226s-9.569-3.5-9.569-9.226V110.534h3.7v12.821c0,3.69,2.29,5.911,5.9,5.911,3.576,0,5.8-2.189,5.8-5.911V110.534h3.7Z"/><path d="M52.669,125.9c-.318.031-.668.031-1.017.031H46.375v6.645H42.624V110.533h9.028c5.689,0,8.963,2.741,8.963,7.528,0,3.527-1.652,6.015-4.609,7.149L61,132.58H56.738ZM51.652,122.6c3.433,0,5.4-1.448,5.4-4.44,0-2.9-1.97-4.284-5.4-4.284H46.375V122.6Z"/><polygon points="81.598 132.58 69.855 116.769 69.855 132.58 66.142 132.58 66.142 110.533 69.793 110.533 81.598 126.376 81.598 110.533 85.249 110.533 85.249 132.58 81.598 132.58"/><rect x="91.864" y="110.533" width="3.675" height="22.047"/><polygon points="110.605 113.872 110.605 132.58 106.895 132.58 106.895 113.872 99.947 113.872 99.947 110.533 117.584 110.533 117.584 113.872 110.605 113.872"/><path d="M141.837,121.525a11.4,11.4,0,0,1-22.782,0c0-6.258,4.974-10.991,11.391-10.991s11.391,4.764,11.391,10.991m-19.1,0a7.759,7.759,0,0,0,7.737,7.755,7.723,7.723,0,1,0-7.737-7.755"/><polygon points="164.637 132.58 159.49 115.385 154.282 132.58 150.5 132.58 143.307 110.533 147.244 110.533 152.515 128.454 157.754 110.564 161.351 110.533 166.621 128.454 171.86 110.533 175.643 110.533 168.389 132.58 164.637 132.58"/><polygon points="194.773 132.58 183.032 116.769 183.032 132.58 179.317 132.58 179.317 110.533 182.969 110.533 194.773 126.376 194.773 110.533 198.425 110.533 198.425 132.58 194.773 132.58"/><polygon points="52.936 154.586 52.936 151.385 48.592 151.385 48.592 154.586 47.769 154.586 47.769 147.31 48.592 147.31 48.592 150.595 52.936 150.595 52.936 147.31 53.759 147.31 53.759 154.586 52.936 154.586"/><path d="M63.063,150.948a3.774,3.774,0,1,1-3.767-3.659,3.7,3.7,0,0,1,3.767,3.659m-6.711,0a2.934,2.934,0,1,0,2.944-2.869,2.917,2.917,0,0,0-2.944,2.869"/><polygon points="71.348 154.586 71.337 148.588 68.713 153.816 68.219 153.816 65.604 148.588 65.604 154.586 64.822 154.586 64.822 147.31 65.841 147.31 68.476 152.549 71.1 147.31 72.11 147.31 72.11 154.586 71.348 154.586"/><polygon points="75.381 148.11 75.381 150.502 79.015 150.502 79.015 151.301 75.381 151.301 75.381 153.797 79.581 153.797 79.581 154.587 74.559 154.587 74.559 147.31 79.447 147.31 79.447 148.11 75.381 148.11"/><polygon points="85.416 148.11 85.416 150.668 88.782 150.668 88.782 151.468 85.416 151.468 85.416 154.587 84.592 154.587 84.592 147.31 89.173 147.31 89.173 148.11 85.416 148.11"/><path d="M96.532,151.593a3.026,3.026,0,1,1-6.052,0V147.31H91.3v4.283a2.2,2.2,0,1,0,4.405,0V147.31h.824Z"/><path d="M102.026,152.268c-.153.01-.318.022-.483.022H99.629v2.3h-.824V147.31h2.738c1.8,0,2.841.894,2.841,2.443a2.276,2.276,0,0,1-1.616,2.359l1.688,2.475h-.937Zm-.483-.78c1.307,0,2.049-.582,2.049-1.715,0-1.1-.742-1.663-2.049-1.663H99.629v3.378Z"/><polygon points="111.649 154.586 107.327 148.744 107.327 154.586 106.503 154.586 106.503 147.31 107.357 147.31 111.681 153.162 111.681 147.31 112.494 147.31 112.494 154.586 111.649 154.586"/><rect x="114.942" y="147.31" width="0.824" height="7.275"/><path d="M122.632,147.954l-.351.78a3.7,3.7,0,0,0-1.986-.614c-.926,0-1.533.355-1.533.968,0,1.87,4.054.893,4.045,3.534,0,1.217-1.061,1.995-2.605,1.995a4.089,4.089,0,0,1-2.757-1.111l.369-.748a3.568,3.568,0,0,0,2.4,1.027c1.039,0,1.687-.426,1.687-1.122.011-1.912-4.045-.894-4.045-3.5,0-1.143,1-1.882,2.492-1.882a4.249,4.249,0,0,1,2.285.676"/><polygon points="129.918 154.586 129.918 151.385 125.574 151.385 125.574 154.586 124.751 154.586 124.751 147.31 125.574 147.31 125.574 150.595 129.918 150.595 129.918 147.31 130.741 147.31 130.741 154.586 129.918 154.586"/><rect x="133.18" y="147.31" width="0.824" height="7.275"/><polygon points="141.589 154.586 137.267 148.744 137.267 154.586 136.442 154.586 136.442 147.31 137.297 147.31 141.62 153.162 141.62 147.31 142.433 147.31 142.433 154.586 141.589 154.586"/><path d="M150.635,151.031v2.641a4.425,4.425,0,0,1-2.676.957,3.672,3.672,0,1,1,.041-7.34,4.061,4.061,0,0,1,2.656,1l-.473.623a3.3,3.3,0,0,0-2.183-.842,2.887,2.887,0,1,0,.011,5.771,3.424,3.424,0,0,0,1.893-.614v-2.194Z"/><path d="M142.282,28.713l-1.915-1.276-36.3-24.2L99.657.3,99.213,0l-.445.3-4.411,2.94-36.3,24.2-1.915,1.276-1.024.684V88.486h2.939V60.07H69.327V88.486h2.939V60.07H83.535V88.486h2.939V57.13H72.266V45.861h53.893V57.13H111.951V88.486h2.94V60.07h11.268V88.486h2.94V60.07h11.268V88.486h2.94V29.4ZM129.1,57.13V42.922H69.327V57.13H58.058V30.97l3.385-2.257,37.77-25.18,37.769,25.18,3.385,2.257V57.13Z"/></svg>