<svg xmlns="http://www.w3.org/2000/svg" width="31.111mm" height="31.216mm" viewBox="0 0 88.188 88.486"><path d="M87.164,28.713l-1.915-1.276-36.3-24.2L44.539.3,44.094,0l-.445.3-4.41,2.94-36.3,24.2L1.025,28.713,0,29.4V88.486H2.939V60.07H14.208V88.486h2.939V60.07H28.416V88.486h2.939V57.13H17.147V45.861H71.041V57.13H56.832V88.486h2.94V60.07H71.041V88.486H73.98V60.07H85.249V88.486h2.939V29.4ZM73.98,57.13V42.922H14.208V57.13H2.939V30.97l3.385-2.257,37.77-25.18,37.77,25.18,3.385,2.257V57.13Z" fill="#fff"/></svg>